/* XPM */
static char * close_inactive_xpm[] = {
"23 25 3 1",
" 	c None",
".	c #22AA99 s active_color_2",
"+	c #D9D9D9 s active_color_1",
".......................",
".......................",
".......................",
"...+++++++++++++++++...",
"...+...............+...",
"...+...............+...",
"...+..++........+..+...",
"...+..+++......++..+...",
"...+...+++....++...+...",
"...+....+++..++....+...",
"...+.....+++.+.....+...",
"...+......+.+......+...",
"...+.....+.+++.....+...",
"...+....++..+++....+...",
"...+...++....+++...+...",
"...+..++......+++..+...",
"...+..+........++..+...",
"...+...............+...",
"...+...............+...",
"...+++++++++++++++++...",
".......................",
".......................",
".......................",
"                       ",
"                       "};
