/* XPM */
static char * hide_active_xpm[] = {
"23 25 3 1",
" 	c #708090",
".	c #22AA99 s active_color_1",
"+	c #D9D9D9 s active_text_color",
".......................",
".......................",
".......................",
"...+++++++++++++++++...",
"...+...............+...",
"...+...............+...",
"...+.....+++++.....+...",
"...+....+++++++....+...",
"...+...+++++++++...+...",
"...+..+++++++++++..+...",
"...+..+++++++++++..+...",
"...+..+++++++++++..+...",
"...+..+++++++++++..+...",
"...+..+++++++++++..+...",
"...+...+++++++++...+...",
"...+....+++++++....+...",
"...+.....+++++.....+...",
"...+...............+...",
"...+...............+...",
"...+++++++++++++++++...",
".......................",
".......................",
".......................",
"                       ",
"                       "};
