/* XPM */
static char * close_cut_xpm[] = {
"15 15 2 1",
" 	c None",
"@	c #D9D9D9 s active_text_color",
"               ",
"               ",
"  @@        @  ",
"  @@@      @@  ",
"   @@@    @@   ",
"    @@@  @@    ",
"     @@@ @     ",
"      @ @      ",
"     @ @@@     ",
"    @@  @@@    ",
"   @@    @@@   ",
"  @@      @@@  ",
"  @        @@  ",
"               ",
"               "
};
