/* XPM */
static char * maximize_inactive_xpm[] = {
"23 23 3 1",
" 	c None",
".	c #22AA99 s inactive_color_1",
"+	c #D9D9D9 s active_color_1",
"                       ",
".......................",
".......................",
"...+++++++++++++++++...",
"...+.....+....+....+...",
"...+.....+....+....+...",
"...+.....+....+....+...",
"...+.....+....+....+...",
"...+.....+....+....+...",
"...+++++++....+....+...",
"...+..........+....+...",
"...+..........+....+...",
"...+..........+....+...",
"...+..........+....+...",
"...++++++++++++....+...",
"...+...............+...",
"...+...............+...",
"...+...............+...",
"...+...............+...",
"...+++++++++++++++++...",
".......................",
".......................",
"                       "};
