/* XPM */
static char * maximize_cut_backdrop_xpm[] = {
"16 16 2 1",
" 	c none",
"@	c #22AA99 s inactive_color_1",
"@@@@@@@@@@@@@@@@",
"@    @    @    @",
"@    @    @    @",
"@    @    @    @",
"@    @    @    @",
"@@@@@@    @    @",
"@         @    @",
"@         @    @",
"@         @    @",
"@         @    @",
"@@@@@@@@@@@    @",
"@              @",
"@              @",
"@              @",
"@              @",
"@@@@@@@@@@@@@@@@"};
