/* XPM */
static char * menu_cut_xpm[] = {
"15 15 2 1",
" 	c none",
"@	c #D9D9D9 s active_text_color",
"@@@@@@@@@@@@@  ",
"@           @  ",
"@           @@@",
"@           @@@",
"@  @@@@@@@  @@@",
"@           @@@",
"@           @@@",
"@           @@@",
"@           @@@",
"@  @@@@@@@  @@@",
"@           @@@",
"@           @@@",
"@           @@@",
"@@@@@@@@@@@@@@@",
"  @@@@@@@@@@@@@"};
