/* XPM */
static char * bottom_right_active_xpm[] = {
"3 3 2 1",
" 	c #22AA99 s active_color_2",
".	c #D9D9D9 s active_color_1",
". .",
"  .",
"..."};
