/* XPM */
static char * right_active_xpm[] = {
"3 2 2 1",
" 	c #22AA99 s active_color_1",
".	c #D9D9D9 s active_border_color",
"  .",
"  ."};
