/* XPM */
static char * title_5_active_xpm[] = {
"2 23 4 1",
" 	c #708090",
".	c #22AA99 s active_color_1",
"+	c #D9D9D9 s active_text_color",
"_	c #101010 s active_border_color",
"__",
"..",
"..",
".+",
"+.",
".+",
"+.",
".+",
"+.",
".+",
"+.",
".+",
"+.",
".+",
"+.",
".+",
"+.",
".+",
"+.",
".+",
"+.",
"..",
".."};
