/* XPM */
static char * title_4_inactive_xpm[] = {
"2 23 2 1",
"+	c #FFFFFF s active_color_2",
".	c #22AA99 s active_color_1",
"..",
"++",
"++",
"++",
"++",
"++",
"++",
"++",
"++",
"++",
"++",
"++",
"++",
"++",
"++",
"++",
"++",
"++",
"++",
"++",
"++",
"++",
".."};
