/* XPM */
static char * top_left_inactive_xpm[] = {
"3 23 2 1",
"+	c #FFFFFF s active_color_2",
".	c #22AA99 s active_color_1",
"...",
".++",
".++",
".++",
".++",
".++",
".++",
".++",
".++",
".++",
".++",
".++",
".++",
".++",
".++",
".++",
".++",
".++",
".++",
".++",
".++",
".++",
".+."};
