/* XPM */
static char * top_left_active_xpm[] = {
"3 23 4 1",
" 	c #708090",
"+	c #22AA99 s active_color_1",
".	c #101010 s active_border_color",
"_	c #D9D9D9 s active_text_color",
"...",
".++",
"._+",
".++",
"._+",
".++",
"._+",
".++",
"._+",
".++",
"._+",
".++",
"._+",
".++",
"._+",
".++",
"._+",
".++",
"._+",
".++",
"._+",
".++",
".++"};
